<svg width="32" height="32" viewBox="0 0 32 32" fill="none" xmlns="http://www.w3.org/2000/svg">
<path d="M5.90225 27.201L3.65625 2H28.3442L26.0952 27.197L15.9852 30L5.90225 27.201Z" fill="#1572B6"/>
<path d="M16 27.858L24.17 25.593L26.092 4.06097H16V27.858Z" fill="#33A9DC"/>
<path d="M16 13.191H20.09L20.372 10.026H16V6.935H23.75L23.676 7.764L22.917 16.282H16V13.191Z" fill="white"/>
<path d="M16.0192 21.218L16.0052 21.222L12.5632 20.292L12.3432 17.827H9.24023L9.67323 22.68L16.0042 24.438L16.0192 24.434V21.218Z" fill="#EBEBEB"/>
<path d="M19.8268 16.151L19.4548 20.29L16.0078 21.22V24.436L22.3438 22.68L22.3908 22.158L22.9278 16.151H19.8268Z" fill="white"/>
<path d="M16.0106 6.935V10.026H8.54458L8.48258 9.331L8.34158 7.764L8.26758 6.935H16.0106Z" fill="#EBEBEB"/>
<path d="M16.0002 13.191V16.282H12.6012L12.5392 15.587L12.3992 14.02L12.3252 13.191H16.0002Z" fill="#EBEBEB"/>
</svg>
