<svg width="32" height="32" viewBox="0 0 32 32" fill="none" xmlns="http://www.w3.org/2000/svg">
<path d="M29.472 14.753L17.247 2.52802C17.0797 2.36021 16.881 2.22706 16.6622 2.13621C16.4434 2.04536 16.2089 1.9986 15.972 1.9986C15.7351 1.9986 15.5005 2.04536 15.2817 2.13621C15.0629 2.22706 14.8642 2.36021 14.697 2.52802L12.158 5.06702L15.378 8.28702C15.7577 8.1578 16.166 8.13784 16.5565 8.22941C16.947 8.32099 17.304 8.52041 17.5866 8.80496C17.8693 9.08952 18.0664 9.44775 18.1554 9.83885C18.2444 10.2299 18.2217 10.6382 18.09 11.017L21.19 14.117C21.6533 13.9578 22.1573 13.9622 22.6178 14.1295C23.0783 14.2968 23.4676 14.6168 23.7208 15.0362C23.9741 15.4557 24.0759 15.9492 24.0094 16.4346C23.9429 16.9201 23.712 17.368 23.3553 17.7039C22.9986 18.0398 22.5376 18.2433 22.0491 18.2806C21.5605 18.3178 21.074 18.1865 20.6705 17.9085C20.267 17.6306 19.971 17.2228 19.8317 16.753C19.6924 16.2833 19.7182 15.78 19.905 15.327L17.01 12.432V20.049C17.4485 20.2663 17.7994 20.6273 18.0041 21.0718C18.2088 21.5163 18.2551 22.0176 18.1352 22.4921C18.0152 22.9666 17.7364 23.3857 17.345 23.6796C16.9536 23.9734 16.4734 24.1243 15.9842 24.1071C15.4951 24.0899 15.0267 23.9057 14.6569 23.5851C14.2871 23.2645 14.0383 22.8268 13.952 22.3451C13.8657 21.8633 13.947 21.3666 14.1825 20.9375C14.4179 20.5084 14.7933 20.173 15.246 19.987V12.3C14.9841 12.1926 14.746 12.0343 14.5455 11.8345C14.345 11.6346 14.186 11.3971 14.0778 11.1355C13.9695 10.8739 13.914 10.5935 13.9145 10.3104C13.9151 10.0273 13.9717 9.74716 14.081 9.48602L10.911 6.31402L2.52797 14.7C2.36001 14.8673 2.22674 15.066 2.1358 15.2849C2.04486 15.5038 1.99805 15.7385 1.99805 15.9755C1.99805 16.2125 2.04486 16.4472 2.1358 16.6661C2.22674 16.885 2.36001 17.0838 2.52797 17.251L14.753 29.472C14.9202 29.6398 15.1189 29.773 15.3377 29.8638C15.5565 29.9547 15.7911 30.0014 16.028 30.0014C16.2649 30.0014 16.4994 29.9547 16.7182 29.8638C16.937 29.773 17.1357 29.6398 17.303 29.472L29.472 17.3C29.6399 17.1328 29.7732 16.934 29.8641 16.7151C29.9551 16.4962 30.0019 16.2615 30.0019 16.0245C30.0019 15.7875 29.9551 15.5528 29.8641 15.3339C29.7732 15.115 29.6399 14.9163 29.472 14.749" fill="#DD4C35"/>
<path d="M12.1581 5.06702L15.3781 8.28702C15.7578 8.1578 16.1662 8.13784 16.5567 8.22941C16.9472 8.32099 17.3041 8.52041 17.5868 8.80496C17.8695 9.08952 18.0665 9.44775 18.1555 9.83885C18.2445 10.2299 18.2219 10.6382 18.0901 11.017L21.1901 14.117C21.6535 13.9578 22.1574 13.9622 22.618 14.1295C23.0785 14.2968 23.4678 14.6168 23.721 15.0362C23.9742 15.4557 24.0761 15.9492 24.0096 16.4347C23.943 16.9201 23.7122 17.368 23.3555 17.7039C22.9988 18.0398 22.5378 18.2433 22.0492 18.2806C21.5607 18.3178 21.0741 18.1865 20.6707 17.9085C20.2672 17.6306 19.9711 17.2228 19.8318 16.753C19.6925 16.2833 19.7184 15.78 19.9051 15.327L17.0101 12.432V20.049C17.4487 20.2663 17.7995 20.6273 18.0043 21.0718C18.209 21.5163 18.2553 22.0176 18.1353 22.4921C18.0154 22.9666 17.7365 23.3857 17.3451 23.6796C16.9538 23.9734 16.4735 24.1243 15.9844 24.1071C15.4953 24.0899 15.0268 23.9057 14.6571 23.5851C14.2873 23.2645 14.0385 22.8268 13.9522 22.3451C13.8659 21.8633 13.9472 21.3666 14.1826 20.9375C14.4181 20.5084 14.7934 20.173 15.2461 19.987V12.3C14.9842 12.1926 14.7462 12.0343 14.5457 11.8345C14.3452 11.6346 14.1862 11.3971 14.0779 11.1355C13.9696 10.8739 13.9142 10.5935 13.9147 10.3104C13.9153 10.0273 13.9718 9.74716 14.0811 9.48602L10.9111 6.31402" fill="white"/>
</svg>
