<svg width="32" height="32" viewBox="0 0 32 32" fill="none" xmlns="http://www.w3.org/2000/svg">
<path d="M4.78223 22.747L16.2322 2.914L17.2602 3.507L5.81023 23.34L4.78223 22.747Z" fill="#E10098"/>
<path d="M4.54492 21.162H27.4469V22.349H4.54492V21.162Z" fill="#E10098"/>
<path d="M4.99805 21.829L5.59205 20.801L17.047 27.414L16.453 28.442L4.99805 21.829Z" fill="#E10098"/>
<path d="M14.9502 4.59099L15.5442 3.56299L26.9992 10.177L26.4052 11.205L14.9502 4.59099Z" fill="#E10098"/>
<path d="M5.00098 10.174L16.456 3.56L17.05 4.588L5.59498 11.202L5.00098 10.174Z" fill="#E10098"/>
<path d="M14.7432 3.508L15.7712 2.914L27.2212 22.747L26.1942 23.34L14.7432 3.508Z" fill="#E10098"/>
<path d="M5.4541 9.38599H6.6411V22.614H5.4541V9.38599Z" fill="#E10098"/>
<path d="M25.3604 9.38599H26.5474V22.614H25.3604V9.38599Z" fill="#E10098"/>
<path d="M15.7334 27.042L25.6964 21.29L26.2154 22.188L16.2524 27.94L15.7334 27.042Z" fill="#E10098"/>
<path d="M28.1199 23C27.8732 23.4287 27.5048 23.7746 27.0613 23.9939C26.6179 24.2132 26.1194 24.296 25.6289 24.2319C25.1384 24.1677 24.6779 23.9595 24.3058 23.6335C23.9337 23.3075 23.6667 22.8785 23.5385 22.4007C23.4103 21.9229 23.4268 21.4178 23.5858 20.9494C23.7448 20.481 24.0392 20.0702 24.4318 19.7692C24.8243 19.4681 25.2974 19.2903 25.791 19.2583C26.2847 19.2262 26.7767 19.3413 27.2049 19.589C27.778 19.9205 28.1962 20.4658 28.3678 21.1053C28.5393 21.7447 28.4502 22.4261 28.1199 23Z" fill="#E10098"/>
<path d="M8.20001 11.5C7.95326 11.9287 7.58486 12.2746 7.14143 12.4939C6.698 12.7132 6.19948 12.796 5.70896 12.7319C5.21845 12.6677 4.758 12.4595 4.38589 12.1335C4.01378 11.8075 3.74674 11.3785 3.61857 10.9007C3.4904 10.4229 3.50686 9.91784 3.66588 9.4494C3.82489 8.98096 4.1193 8.57023 4.51185 8.26919C4.9044 7.96815 5.37743 7.79033 5.87108 7.75825C6.36473 7.72617 6.8568 7.84127 7.28501 8.08897C7.85811 8.42049 8.2763 8.9658 8.44784 9.60527C8.61937 10.2447 8.53025 10.9261 8.20001 11.5Z" fill="#E10098"/>
<path d="M3.87993 23C3.63222 22.5718 3.51713 22.0797 3.54921 21.586C3.58129 21.0924 3.7591 20.6194 4.06014 20.2268C4.36118 19.8343 4.77191 19.5399 5.24035 19.3808C5.70879 19.2218 6.21387 19.2054 6.69167 19.3335C7.16947 19.4617 7.5985 19.7287 7.92447 20.1009C8.25043 20.473 8.45867 20.9334 8.52283 21.4239C8.58699 21.9144 8.50418 22.413 8.28489 22.8564C8.0656 23.2998 7.71969 23.6682 7.29093 23.915C6.71709 24.2452 6.03569 24.3343 5.39622 24.1628C4.75675 23.9913 4.21144 23.5731 3.87993 23Z" fill="#E10098"/>
<path d="M23.7998 11.5C23.5521 11.0718 23.4371 10.5797 23.4691 10.086C23.5012 9.5924 23.679 9.11936 23.9801 8.72681C24.2811 8.33427 24.6918 8.03985 25.1603 7.88084C25.6287 7.72183 26.1338 7.70537 26.6116 7.83354C27.0894 7.96171 27.5184 8.22875 27.8444 8.60086C28.1704 8.97297 28.3786 9.43342 28.4428 9.92393C28.5069 10.4144 28.4241 10.913 28.2048 11.3564C27.9855 11.7998 27.6396 12.1682 27.2108 12.415C26.637 12.7452 25.9556 12.8343 25.3161 12.6628C24.6767 12.4913 24.1314 12.0731 23.7998 11.5Z" fill="#E10098"/>
<path d="M16 30C15.5055 30 15.0222 29.8534 14.6111 29.5787C14.2 29.304 13.8795 28.9135 13.6903 28.4567C13.5011 27.9999 13.4516 27.4972 13.548 27.0123C13.6445 26.5273 13.8826 26.0819 14.2322 25.7322C14.5819 25.3826 15.0273 25.1445 15.5123 25.048C15.9972 24.9516 16.4999 25.0011 16.9567 25.1903C17.4135 25.3795 17.804 25.7 18.0787 26.1111C18.3534 26.5222 18.5 27.0055 18.5 27.5C18.5009 27.8286 18.4369 28.1541 18.3116 28.4578C18.1863 28.7615 18.0022 29.0375 17.7698 29.2698C17.5375 29.5022 17.2615 29.6863 16.9578 29.8116C16.6541 29.9369 16.3286 30.0009 16 30Z" fill="#E10098"/>
<path d="M16 6.99103C15.5055 6.99103 15.0222 6.84441 14.6111 6.5697C14.2 6.295 13.8795 5.90455 13.6903 5.44774C13.5011 4.99092 13.4516 4.48826 13.548 4.0033C13.6445 3.51835 13.8826 3.07289 14.2322 2.72326C14.5819 2.37363 15.0273 2.13553 15.5123 2.03907C15.9972 1.9426 16.4999 1.99211 16.9567 2.18133C17.4135 2.37055 17.804 2.69098 18.0787 3.1021C18.3534 3.51323 18.5 3.99658 18.5 4.49103C18.5009 4.81959 18.4369 5.1451 18.3116 5.44883C18.1863 5.75256 18.0022 6.02853 17.7698 6.26086C17.5375 6.49319 17.2615 6.6773 16.9578 6.80261C16.6541 6.92792 16.3286 6.99195 16 6.99103Z" fill="#E10098"/>
</svg>
