<svg width="32" height="32" viewBox="0 0 32 32" fill="none" xmlns="http://www.w3.org/2000/svg">
<path d="M18.7744 19.7C19.0846 20.3289 19.566 20.8575 20.1632 21.2251C20.7604 21.5927 21.4492 21.7843 22.1504 21.778C23.5684 21.778 24.4744 21.069 24.4744 20.09C24.4744 18.917 23.5434 18.501 21.9834 17.818L21.1274 17.451C18.6584 16.399 17.0174 15.081 17.0174 12.295C17.0174 9.72798 18.9734 7.77498 22.0294 7.77498C23.0212 7.70301 24.0123 7.92502 24.8787 8.41325C25.745 8.90148 26.4482 9.63426 26.9004 10.52L24.2354 12.231C24.0609 11.7921 23.757 11.4167 23.364 11.1546C22.971 10.8926 22.5076 10.7563 22.0354 10.764C21.8295 10.7433 21.6216 10.7657 21.4249 10.8298C21.2282 10.8939 21.047 10.9983 20.8929 11.1363C20.7388 11.2743 20.6152 11.443 20.5298 11.6314C20.4445 11.8199 20.3994 12.0241 20.3974 12.231C20.3974 13.258 21.0334 13.673 22.4974 14.309L23.3534 14.675C26.2614 15.922 27.9024 17.193 27.9024 20.051C27.9024 23.132 25.4824 24.82 22.2314 24.82C20.9651 24.9005 19.7025 24.6129 18.596 23.9919C17.4894 23.3709 16.5863 22.4429 15.9954 21.32L18.7744 19.7ZM6.68639 20C7.22439 20.954 7.71339 21.76 8.88639 21.76C10.0104 21.76 10.7204 21.32 10.7204 19.61V7.97498H14.1424V19.658C14.1424 23.201 12.0644 24.814 9.03239 24.814C7.96138 24.872 6.89791 24.6044 5.98189 24.0464C5.06587 23.4884 4.34021 22.6662 3.90039 21.688L6.68639 20Z" fill="#F5DE19"/>
</svg>
