<svg width="32" height="32" viewBox="0 0 32 32" fill="none" xmlns="http://www.w3.org/2000/svg">
<path d="M3.16699 3.517H28.833V28.483H3.16699V3.517Z" fill="#0C0824"/>
<path d="M3.167 3.51701H28.833V28.483H3.167V3.51701ZM2 29.65H30V2.35001H2V29.65ZM20.877 13.55C19.955 13.55 19.64 14.017 19.64 14.402C19.64 14.822 19.85 15.114 21.087 15.755C22.919 16.642 23.487 17.493 23.487 18.742C23.487 20.609 22.064 21.612 20.139 21.612C19.3128 21.6426 18.4917 21.471 17.747 21.112C17.665 21.077 17.654 21.019 17.654 20.925V19.208C17.654 19.091 17.712 19.056 17.794 19.115C18.4934 19.5647 19.3075 19.8036 20.139 19.803C21.061 19.803 21.446 19.418 21.446 18.893C21.446 18.473 21.178 18.1 19.999 17.493C18.342 16.7 17.654 15.893 17.654 14.553C17.654 13.048 18.832 11.8 20.874 11.8C21.5848 11.7695 22.2946 11.8806 22.962 12.127C23.0004 12.152 23.0315 12.1867 23.0521 12.2276C23.0727 12.2686 23.0819 12.3143 23.079 12.36V13.96C23.079 14.053 23.021 14.112 22.904 14.077C22.2872 13.7219 21.5857 13.5405 20.874 13.552L20.877 13.55ZM10.843 14.938C11.111 14.961 11.321 14.961 11.788 14.961C13.153 14.961 14.436 14.483 14.436 12.628C14.436 11.146 13.514 10.4 11.963 10.4C11.496 10.4 11.053 10.423 10.843 10.435V14.938ZM8.766 8.73801C8.766 8.65601 8.929 8.59801 9.023 8.59801C10.0258 8.55703 11.0294 8.53769 12.033 8.54001C15.265 8.54001 16.525 10.313 16.525 12.577C16.525 15.54 14.378 16.812 11.742 16.812C11.299 16.812 11.147 16.789 10.832 16.789V21.269C10.832 21.362 10.797 21.409 10.692 21.409H8.907C8.814 21.409 8.767 21.374 8.767 21.269V8.74301L8.766 8.73801Z" fill="#31C5F0"/>
</svg>
