<svg width="32" height="32" viewBox="0 0 32 32" fill="none" xmlns="http://www.w3.org/2000/svg">
<path fill-rule="evenodd" clip-rule="evenodd" d="M16 2C18.7689 2 21.4757 2.82109 23.778 4.35943C26.0803 5.89777 27.8747 8.08427 28.9343 10.6424C29.9939 13.2006 30.2712 16.0155 29.731 18.7313C29.1908 21.447 27.8574 23.9416 25.8995 25.8995C23.9416 27.8574 21.447 29.1908 18.7313 29.731C16.0155 30.2712 13.2006 29.9939 10.6424 28.9343C8.08427 27.8747 5.89777 26.0803 4.35943 23.778C2.82109 21.4757 2 18.7689 2 16C2 12.287 3.475 8.72601 6.1005 6.1005C8.72601 3.475 12.287 2 16 2Z" fill="#CC6699"/>
<path d="M24.7822 7.99198C24.1482 5.50598 20.0252 4.69197 16.1232 6.07397C13.6795 6.89513 11.4218 8.19017 9.47919 9.88498C7.33019 11.895 6.98719 13.645 7.12819 14.376C7.62819 16.956 11.1612 18.642 12.6142 19.893V19.9C12.1862 20.111 9.05019 21.7 8.31419 23.32C7.54019 25.032 8.43719 26.26 9.03219 26.425C9.92551 26.64 10.8637 26.57 11.7153 26.2248C12.5668 25.8796 13.2889 25.2764 13.7802 24.5C14.1862 23.8709 14.4403 23.1559 14.5222 22.4117C14.6041 21.6674 14.5117 20.9143 14.2522 20.212C14.9521 20.0341 15.6796 19.9924 16.3952 20.089C18.8512 20.376 19.3332 21.909 19.2412 22.551C19.1979 22.7795 19.1059 22.996 18.9715 23.1858C18.8371 23.3757 18.6634 23.5343 18.4622 23.651C18.2902 23.758 18.2372 23.794 18.2522 23.874C18.2732 23.989 18.3522 23.985 18.4992 23.96C18.8683 23.8437 19.1935 23.6184 19.432 23.3137C19.6705 23.009 19.811 22.6392 19.8352 22.253C19.8942 20.753 18.4532 19.067 15.9012 19.11C15.16 19.0888 14.4204 19.1902 13.7122 19.41C13.6767 19.3695 13.6407 19.3295 13.6042 19.29C12.0262 17.607 9.11019 16.416 9.23319 14.153C9.27819 13.33 9.56419 11.164 14.8332 8.53598C19.1532 6.38298 22.6112 6.97597 23.2092 8.28897C24.0632 10.165 21.3612 13.65 16.8752 14.153C16.3794 14.2536 15.8672 14.2414 15.3768 14.1171C14.8864 13.9928 14.4302 13.7596 14.0422 13.435C13.8062 13.175 13.7712 13.164 13.6832 13.212C13.5402 13.291 13.6312 13.521 13.6832 13.657C13.855 13.9666 14.0868 14.2387 14.3652 14.4575C14.6435 14.6763 14.9628 14.8372 15.3042 14.931C17.068 15.3142 18.9077 15.1323 20.5622 14.411C23.2832 13.362 25.4052 10.437 24.7822 7.99198ZM13.2182 20.663C13.4168 21.3477 13.4067 22.076 13.1892 22.755C13.1659 22.8256 13.1402 22.8956 13.1122 22.965C13.0842 23.0343 13.0539 23.101 13.0212 23.165C12.8529 23.5093 12.6349 23.827 12.3742 24.108C11.5612 24.995 10.4242 25.331 9.93719 25.048C9.41119 24.743 9.67419 23.492 10.6172 22.495C11.3418 21.7785 12.1772 21.1835 13.0912 20.733L13.2182 20.663Z" fill="white"/>
</svg>
