<svg width="32" height="32" viewBox="0 0 32 32" fill="none" xmlns="http://www.w3.org/2000/svg">
<path d="M18.0497 29.6C18.0917 29.505 18.1977 29.439 18.2747 29.359C19.4497 28.127 20.6347 26.906 21.7937 25.659C22.1564 25.324 22.4367 24.9097 22.6126 24.4484C22.7885 23.9871 22.8553 23.4914 22.8077 23C22.7713 22.7896 22.7236 22.5812 22.6647 22.376C22.3487 22.676 22.0547 22.949 21.7587 23.224C21.2987 23.652 20.8407 24.082 20.3767 24.505C20.1031 24.7839 19.7513 24.9733 19.3678 25.0482C18.9843 25.123 18.5871 25.0797 18.2287 24.924C17.8659 24.7907 17.5503 24.5538 17.3209 24.2427C17.0916 23.9316 16.9587 23.56 16.9387 23.174C16.928 23.1243 16.9136 23.0755 16.8957 23.028C16.5427 23.328 16.2047 23.604 15.8697 23.888L8.90672 29.788C8.85872 29.829 8.80672 29.88 8.76172 29.92H18.0447L18.0307 29.911C17.9807 29.876 18.0067 29.692 18.0497 29.6Z" fill="#FFCEBF"/>
<path d="M8.33734 29.6C8.41991 29.4925 8.51957 29.3992 8.63234 29.324L18.2683 21.149C18.9257 20.591 19.58 20.03 20.2313 19.466C20.3118 19.4099 20.3749 19.3323 20.4133 19.242C20.5691 18.5631 20.5912 17.8603 20.4783 17.173C20.3783 17.243 20.3243 17.273 20.2783 17.322C19.4893 18.028 18.7043 18.74 17.9113 19.442C17.6486 19.7064 17.3089 19.8807 16.9409 19.9398C16.5729 19.9989 16.1956 19.9398 15.8633 19.771C15.5243 19.611 15.2406 19.3537 15.0483 19.0319C14.856 18.7101 14.7637 18.3384 14.7833 17.964V17.64C14.6383 17.746 14.5323 17.817 14.4333 17.897C10.5767 20.985 6.72067 24.0707 2.86534 27.154C2.69134 27.293 2.48334 27.603 2.25534 27.302C2.02734 27.001 2.37434 26.877 2.54934 26.737C6.65934 23.439 10.7713 20.144 14.8853 16.852C15.5553 16.315 15.5993 16.09 15.1633 15.237L14.9033 15.481C14.1903 16.144 13.4693 16.798 12.7673 17.472C12.4794 17.7498 12.1187 17.9404 11.727 18.0219C11.3353 18.1035 10.9286 18.0725 10.5537 17.9327C10.1788 17.7929 9.85115 17.5499 9.60849 17.2318C9.36583 16.9137 9.21809 16.5335 9.18234 16.135C9.04934 16.235 8.93434 16.308 8.82534 16.393L2.72534 21.121C2.62013 21.2242 2.50015 21.3111 2.36934 21.379C2.27061 21.4088 2.16459 21.4035 2.06934 21.364V29.925H8.32534C8.30208 29.8736 8.29106 29.8175 8.29314 29.7611C8.29522 29.7047 8.31035 29.6496 8.33734 29.6Z" fill="#FFCEBF"/>
<path d="M25.2369 2.42301C25.0669 2.98001 24.9019 3.53801 24.7529 4.10101C24.6153 4.49887 24.6313 4.9338 24.7978 5.32046C24.9643 5.70713 25.2693 6.01762 25.6529 6.19101C26.8263 6.80781 28.1486 7.08487 29.4709 6.99101V2.51801C29.4562 2.41994 29.4617 2.31991 29.4869 2.22401C29.5149 2.16977 29.5502 2.11963 29.5919 2.07501H25.2329C25.2999 2.15301 25.2769 2.29001 25.2369 2.42301Z" fill="#FF6196"/>
<path d="M16.4823 12.032C16.4616 12.5313 16.2869 13.0119 15.9823 13.408C14.8933 14.8138 13.6427 16.0865 12.2563 17.2C12.0327 17.407 11.7493 17.5378 11.4468 17.5737C11.1443 17.6097 10.8381 17.5489 10.5723 17.4C10.3077 17.287 10.0846 17.0948 9.93365 16.8498C9.7827 16.6049 9.71131 16.3192 9.72928 16.032C9.76131 15.6793 9.90775 15.3468 10.1463 15.085C11.6966 13.6067 13.3763 12.2704 15.1653 11.092C15.2824 11.0001 15.4255 10.9474 15.5743 10.9413C15.7231 10.9352 15.87 10.9761 15.9943 11.058C16.1576 11.1595 16.2897 11.3042 16.3759 11.4761C16.462 11.648 16.4988 11.8404 16.4823 12.032Z" fill="#FF87AF"/>
<path d="M15.2842 18.093C15.261 17.872 15.2894 17.6486 15.3671 17.4403C15.4449 17.2321 15.5698 17.0448 15.7322 16.893C17.2502 15.4929 18.8788 14.2178 20.6022 13.08C20.6542 13.047 20.7022 13.014 20.7592 12.98C20.9098 12.8713 21.0922 12.8158 21.2777 12.8221C21.4633 12.8285 21.6415 12.8963 21.7842 13.015C21.9224 13.132 22.0201 13.2896 22.0636 13.4654C22.107 13.6411 22.0939 13.8261 22.0262 13.994C21.8082 14.7202 21.4058 15.3776 20.8582 15.902C19.7462 16.9976 18.6126 18.0711 17.4582 19.122C17.2844 19.3008 17.056 19.4167 16.8091 19.4514C16.5622 19.4862 16.3107 19.4379 16.0942 19.314C15.8668 19.1958 15.6731 19.0218 15.5314 18.8082C15.3898 18.5946 15.3047 18.3485 15.2842 18.093Z" fill="#FF87AF"/>
<path d="M22.5003 18.754C22.2203 19.054 21.9323 19.34 21.6633 19.647C21.5825 19.7657 21.5154 19.8932 21.4633 20.027C21.6113 20.071 21.7843 20.187 21.9043 20.146C22.5153 19.941 23.1113 19.695 23.7823 19.436C23.6363 19.772 23.5263 20.082 23.3713 20.366C22.7328 21.4392 21.9331 22.4078 21.0003 23.238C20.6457 23.58 20.2773 23.907 19.8953 24.219C19.693 24.3869 19.4498 24.498 19.1905 24.541C18.9311 24.5841 18.665 24.5574 18.4193 24.4638C18.1737 24.3702 17.9573 24.2131 17.7923 24.0084C17.6273 23.8038 17.5197 23.5589 17.4803 23.299C17.4643 23.1545 17.4771 23.0082 17.5179 22.8687C17.5588 22.7291 17.6269 22.5991 17.7183 22.486C19.0792 21.0083 20.6344 19.7222 22.3413 18.663C22.3621 18.655 22.3841 18.6506 22.4063 18.65L22.5003 18.754Z" fill="#FF87AF"/>
<path d="M24.7939 14.771L26.5049 7.17102L27.7049 7.45202L27.0859 9.33302C26.5079 11.083 25.9229 12.833 25.3589 14.585C25.2489 14.909 25.1049 14.969 24.7939 14.771Z" fill="#FF6196"/>
<path d="M22.8623 19.241C23.0433 18.55 23.2233 17.911 23.3753 17.265C23.5234 16.6385 23.8052 16.0514 24.2013 15.544C24.4443 15.225 24.7173 15.352 24.9963 15.421C25.2543 15.484 25.3193 15.673 25.3303 15.921C25.371 16.6068 25.1621 17.2842 24.7423 17.828C24.2425 18.4476 23.5964 18.9332 22.8623 19.241Z" fill="#FF6196"/>
<path d="M29.9931 2.89397C30.0081 2.67126 30.0024 2.44764 29.9761 2.22597C29.9555 2.16405 29.9146 2.11087 29.8601 2.07497C29.8158 2.03888 29.7638 2.01324 29.7081 1.99997C29.6761 1.99397 29.6311 2.02697 29.5881 2.07397C29.5465 2.11859 29.5111 2.16873 29.4831 2.22297C29.4579 2.31887 29.4525 2.4189 29.4671 2.51697V6.98897C28.1448 7.08283 26.8226 6.80577 25.6491 6.18897C25.2655 6.01557 24.9605 5.70509 24.794 5.31842C24.6275 4.93176 24.6115 4.49683 24.7491 4.09897C24.8981 3.53597 25.0631 2.97797 25.2331 2.42097C25.2731 2.28797 25.2961 2.15097 25.2331 2.07297C25.1981 2.035 25.1497 2.01207 25.0981 2.00897C25.0321 2.00968 24.9681 2.03218 24.9161 2.07297C24.8414 2.1177 24.7818 2.18391 24.7451 2.26297C24.5451 2.86297 24.3691 3.46897 24.2161 4.08097C24.1584 4.32214 24.1428 4.57149 24.1701 4.81797C24.2088 5.26395 24.3747 5.68945 24.648 6.04396C24.9214 6.39848 25.2907 6.66711 25.7121 6.81797C25.9011 6.89697 26.0121 6.97497 25.9591 7.22397C25.8861 7.53997 25.8151 7.85597 25.7431 8.17297C25.2531 10.321 24.7658 12.47 24.2811 14.62C24.2675 14.7158 24.2253 14.8054 24.1601 14.877C23.8407 15.1309 23.5723 15.4431 23.3691 15.797C23.1103 16.264 22.9311 16.771 22.8391 17.297C22.8215 17.4648 22.7609 17.6252 22.6631 17.7627C22.5654 17.9002 22.4338 18.0102 22.2811 18.082C21.8641 18.293 21.4811 18.566 21.0181 18.85C21.049 18.2932 21.043 17.735 21.0001 17.179C20.9649 17.0079 20.9724 16.8309 21.0219 16.6634C21.0715 16.496 21.1615 16.3433 21.2841 16.219C21.894 15.6148 22.3288 14.8566 22.5421 14.025C22.6059 13.8322 22.6233 13.6272 22.5932 13.4264C22.563 13.2256 22.486 13.0348 22.3684 12.8693C22.2508 12.7038 22.0959 12.5683 21.9162 12.4737C21.7365 12.3792 21.5371 12.3282 21.3341 12.325C21.0055 12.3213 20.6828 12.413 20.4051 12.589C19.4509 13.2406 18.5133 13.9161 17.5931 14.615C17.0461 15.027 16.5311 15.483 16.0011 15.915C15.9783 15.8904 15.9585 15.8632 15.9421 15.834C15.932 15.7603 15.9122 15.6884 15.8831 15.62C15.4401 14.936 15.7471 14.439 16.2281 13.928C16.7293 13.4027 17.0061 12.7029 17.0001 11.977C17.0157 11.6071 16.8998 11.2436 16.6731 10.951C16.5524 10.8024 16.4035 10.6791 16.2351 10.588C15.9959 10.4571 15.7224 10.4024 15.4513 10.4314C15.1801 10.4603 14.9243 10.5715 14.7181 10.75L14.4391 10.95C13.8021 11.406 13.1571 11.85 12.5441 12.338C11.6492 13.0524 10.7736 13.7907 9.91814 14.552C9.51814 14.905 9.22614 15.387 8.81114 15.715C6.64714 17.424 4.46014 19.102 2.28114 20.791C2.20622 20.8357 2.13732 20.8898 2.07614 20.952C2.06984 20.9611 2.06448 20.9708 2.06014 20.981C2.01414 21.088 1.97514 21.265 2.02914 21.33C2.04238 21.3441 2.05838 21.3553 2.07614 21.363C2.1714 21.4025 2.27742 21.4078 2.37614 21.378C2.50695 21.3101 2.62694 21.2232 2.73214 21.12L8.83214 16.392C8.94114 16.307 9.05614 16.23 9.18914 16.134C9.2249 16.5325 9.37264 16.9127 9.6153 17.2308C9.85796 17.5489 10.1856 17.7919 10.5605 17.9317C10.9354 18.0715 11.3421 18.1024 11.7338 18.0209C12.1255 17.9394 12.4862 17.7487 12.7741 17.471C13.4741 16.797 14.1971 16.143 14.9101 15.48L15.1701 15.236C15.6061 16.089 15.5621 16.314 14.8921 16.851C10.7748 20.1456 6.66048 23.441 2.54914 26.737C2.37414 26.877 2.02814 27.004 2.25514 27.302C2.48214 27.6 2.69114 27.293 2.86514 27.154C6.72248 24.0733 10.5771 20.9886 14.4291 17.9C14.5291 17.82 14.6341 17.749 14.7791 17.643V17.967C14.7595 18.3413 14.8518 18.7131 15.0441 19.0349C15.2364 19.3566 15.5201 19.6139 15.8591 19.774C16.1914 19.9428 16.5687 20.0019 16.9367 19.9428C17.3047 19.8836 17.6444 19.7094 17.9071 19.445C18.7001 18.745 19.4851 18.031 20.2741 17.325C20.3241 17.28 20.3821 17.246 20.4741 17.176C20.587 17.8633 20.5649 18.5661 20.4091 19.245C20.3707 19.3352 20.3076 19.4129 20.2271 19.469C19.5751 20.0323 18.9208 20.5933 18.2641 21.152L8.63214 29.328C8.51937 29.4032 8.41971 29.4965 8.33714 29.604C8.31079 29.653 8.29601 29.7074 8.29393 29.7631C8.29185 29.8187 8.30253 29.8741 8.32514 29.925C8.37033 29.9588 8.42256 29.9821 8.47796 29.993C8.53335 30.0039 8.5905 30.0022 8.64514 29.988C8.68827 29.9754 8.72795 29.9532 8.76114 29.923C8.81114 29.883 8.86114 29.832 8.90614 29.791L15.8691 23.891C16.2041 23.607 16.5421 23.327 16.8951 23.031C16.913 23.0785 16.9274 23.1273 16.9381 23.177C16.9581 23.563 17.091 23.9346 17.3204 24.2457C17.5497 24.5568 17.8653 24.7937 18.2281 24.927C18.5865 25.0827 18.9837 25.126 19.3672 25.0511C19.7507 24.9763 20.1025 24.7869 20.3761 24.508C20.8401 24.085 21.2981 23.655 21.7581 23.227C22.0581 22.952 22.3481 22.676 22.6641 22.379C22.723 22.5842 22.7708 22.7925 22.8071 23.003C22.8531 23.4928 22.7855 23.9865 22.6097 24.446C22.4338 24.9054 22.1544 25.3181 21.7931 25.652C20.6341 26.9 19.4491 28.121 18.2741 29.352C18.1971 29.432 18.0911 29.498 18.0491 29.593C18.0071 29.688 17.9801 29.874 18.0301 29.914L18.0441 29.923C18.149 29.974 18.2669 29.9918 18.3821 29.974C18.4144 29.9674 18.4432 29.9492 18.4631 29.923C18.4911 29.894 18.5181 29.858 18.5451 29.831C19.4971 28.847 20.4541 27.868 21.3991 26.877C21.7806 26.4905 22.1392 26.0821 22.4731 25.654C22.9086 25.1719 23.1973 24.5755 23.3054 23.9349C23.4135 23.2943 23.3364 22.6362 23.0831 22.038C23.0559 21.9046 23.0825 21.7658 23.1571 21.652C23.2221 21.54 23.2941 21.431 23.3681 21.323C23.6049 21.0155 23.8021 20.6796 23.9551 20.323C24.2508 19.4478 24.7047 18.6343 25.2941 17.923C25.5651 17.5794 25.7516 17.1769 25.8384 16.7481C25.9253 16.3192 25.9101 15.8759 25.7941 15.454C25.7532 15.2935 25.7532 15.1254 25.7941 14.965C26.3001 13.398 26.8211 11.836 27.3371 10.273L28.0271 8.17897L28.2401 7.53197C28.6941 7.53197 29.1221 7.52297 29.5481 7.53197C29.9021 7.54197 30.0101 7.37597 30.0061 7.03197C29.9851 5.65197 29.9931 4.27297 29.9931 2.89397ZM12.2561 17.2C12.0326 17.4069 11.7492 17.5378 11.4467 17.5737C11.1441 17.6096 10.838 17.5488 10.5721 17.4C10.3076 17.2869 10.0845 17.0947 9.93351 16.8498C9.78256 16.6048 9.71117 16.3191 9.72914 16.032C9.76117 15.6793 9.90761 15.3467 10.1461 15.085C11.6965 13.6067 13.3762 12.2703 15.1651 11.092C15.2628 11.0229 15.3739 10.9752 15.4911 10.952C15.5698 10.9375 15.6505 10.9375 15.7291 10.952C15.8234 10.9703 15.9133 11.0063 15.9941 11.058C16.1577 11.1595 16.2898 11.3044 16.376 11.4765C16.4621 11.6486 16.4989 11.8412 16.4821 12.033C16.4614 12.5322 16.2868 13.0129 15.9821 13.409C14.8931 14.8144 13.6425 16.0868 12.2561 17.2ZM17.4561 19.129C17.2823 19.3077 17.0539 19.4236 16.807 19.4584C16.5601 19.4932 16.3086 19.4448 16.0921 19.321C15.8643 19.2025 15.6704 19.028 15.5287 18.8138C15.3869 18.5997 15.3021 18.353 15.2821 18.097C15.2589 17.8759 15.2873 17.6525 15.365 17.4443C15.4428 17.2361 15.5678 17.0487 15.7301 16.897C17.2481 15.4969 18.8768 14.2217 20.6001 13.084C20.6521 13.051 20.7001 13.018 20.7571 12.984C20.9077 12.8753 21.0901 12.8198 21.2756 12.8261C21.4612 12.8324 21.6394 12.9003 21.7821 13.019C21.9203 13.136 22.018 13.2936 22.0615 13.4693C22.1049 13.6451 22.0919 13.8301 22.0241 13.998C21.8061 14.7242 21.4037 15.3815 20.8561 15.906C19.7531 17.008 18.6061 18.069 17.4581 19.125L17.4561 19.129ZM23.3671 20.37C22.7295 21.4414 21.9312 22.4087 21.0001 23.238C20.6455 23.58 20.2771 23.907 19.8951 24.219C19.6929 24.3868 19.4496 24.498 19.1903 24.541C18.9309 24.584 18.6648 24.5574 18.4191 24.4638C18.1735 24.3702 17.9571 24.213 17.7921 24.0084C17.6271 23.8037 17.5195 23.5589 17.4801 23.299C17.4641 23.1545 17.4769 23.0082 17.5177 22.8686C17.5586 22.7291 17.6267 22.599 17.7181 22.486C19.079 21.0082 20.6342 19.7221 22.3411 18.663C22.3619 18.6549 22.3839 18.6505 22.4061 18.65L22.5061 18.75C22.2261 19.05 21.9381 19.336 21.6691 19.643C21.5883 19.7616 21.5212 19.8891 21.4691 20.023C21.6171 20.067 21.7901 20.183 21.9101 20.142C22.3931 19.98 22.8681 19.792 23.3771 19.592L23.7881 19.432C23.6341 19.772 23.5241 20.082 23.3691 20.366L23.3671 20.37ZM24.7401 17.835C24.3671 18.3098 23.8996 18.7021 23.3671 18.987C23.2025 19.079 23.0335 19.165 22.8601 19.245C23.0381 18.564 23.2161 17.933 23.3671 17.295L23.3731 17.269C23.5213 16.6425 23.803 16.0554 24.1991 15.548C24.4421 15.229 24.7151 15.356 24.9941 15.425C25.2521 15.488 25.3171 15.677 25.3281 15.925C25.3691 16.6102 25.161 17.2871 24.7421 17.831L24.7401 17.835ZM27.0801 9.33497C26.5021 11.085 25.9171 12.835 25.3531 14.587C25.2471 14.916 25.1031 14.976 24.7921 14.778L26.2751 8.18497L26.5031 7.17297L27.7031 7.45397L27.4621 8.18497L27.0801 9.33497Z" fill="black"/>
</svg>
