<svg width="22" height="22" viewBox="0 0 22 22" fill="none" xmlns="http://www.w3.org/2000/svg">
<path d="M0 4.125C0 3.39565 0.289731 2.69618 0.805456 2.18046C1.32118 1.66473 2.02065 1.375 2.75 1.375H19.25C19.9793 1.375 20.6788 1.66473 21.1945 2.18046C21.7103 2.69618 22 3.39565 22 4.125V17.875C22 18.6043 21.7103 19.3038 21.1945 19.8195C20.6788 20.3353 19.9793 20.625 19.25 20.625H2.75C2.02065 20.625 1.32118 20.3353 0.805456 19.8195C0.289731 19.3038 0 18.6043 0 17.875V4.125ZM13.0625 11.6875H8.9375C8.75516 11.6875 8.5803 11.7599 8.45136 11.8889C8.32243 12.0178 8.25 12.1927 8.25 12.375C8.25 12.5573 8.32243 12.7322 8.45136 12.8611C8.5803 12.9901 8.75516 13.0625 8.9375 13.0625H13.0625C13.2448 13.0625 13.4197 12.9901 13.5486 12.8611C13.6776 12.7322 13.75 12.5573 13.75 12.375C13.75 12.1927 13.6776 12.0178 13.5486 11.8889C13.4197 11.7599 13.2448 11.6875 13.0625 11.6875ZM4.32575 11.2008C4.26183 11.2647 4.21112 11.3406 4.17653 11.4241C4.14194 11.5076 4.12413 11.5971 4.12413 11.6875C4.12413 11.7779 4.14194 11.8674 4.17653 11.9509C4.21112 12.0344 4.26183 12.1103 4.32575 12.1742C4.45484 12.3033 4.62993 12.3759 4.8125 12.3759C4.9029 12.3759 4.99241 12.3581 5.07593 12.3235C5.15944 12.2889 5.23533 12.2382 5.29925 12.1742L8.04925 9.42425C8.11327 9.36039 8.16407 9.28452 8.19873 9.201C8.23339 9.11747 8.25123 9.02793 8.25123 8.9375C8.25123 8.84707 8.23339 8.75753 8.19873 8.674C8.16407 8.59048 8.11327 8.51461 8.04925 8.45075L5.29925 5.70075C5.23533 5.63683 5.15944 5.58612 5.07593 5.55153C4.99241 5.51694 4.9029 5.49913 4.8125 5.49913C4.7221 5.49913 4.63259 5.51694 4.54907 5.55153C4.46556 5.58612 4.38967 5.63683 4.32575 5.70075C4.26183 5.76467 4.21112 5.84056 4.17653 5.92407C4.14194 6.00759 4.12413 6.0971 4.12413 6.1875C4.12413 6.2779 4.14194 6.36741 4.17653 6.45093C4.21112 6.53444 4.26183 6.61033 4.32575 6.67425L6.59038 8.9375L4.32575 11.2008Z" fill="#E861A4"/>
</svg>
