<svg width="25" height="25" viewBox="0 0 25 25" fill="none" xmlns="http://www.w3.org/2000/svg">
<path d="M3.35938 22.5781L0 2.61719L6.25 0.0390625L10.1953 2.38281L13.8672 0.429688L21.4453 3.35938L17.1875 25L3.35938 22.5781Z" fill="url(#paint0_linear_295_3307)"/>
<path d="M25 8.47656L21.7578 0.507812L15.9375 0L6.875 8.67188L9.29687 19.8828L13.8672 23.0469L25 16.4453L22.2656 11.3281L25 8.47656Z" fill="url(#paint1_linear_295_3307)"/>
<path d="M20 7.26563L22.2656 11.3281L25 8.47656L23.0078 3.51562L20 7.26563Z" fill="url(#paint2_linear_295_3307)"/>
<path d="M4.6875 4.6875H20.3125V20.3125H4.6875V4.6875Z" fill="black"/>
<path d="M6.17188 17.3828H12.0312V18.3594H6.17188V17.3828ZM13.8281 12.2657L14.6484 11.25C15.2344 11.7188 15.8203 12.0313 16.5625 12.0313C17.1484 12.0313 17.5 11.7969 17.5 11.4063C17.5 11.0547 17.2656 10.8594 16.2109 10.586C14.9219 10.2344 14.1016 9.88285 14.1016 8.59378V8.55472C14.1016 7.38285 15.0391 6.6016 16.3281 6.6016C17.1923 6.59796 18.0322 6.88711 18.7109 7.42191L17.9688 8.51566C17.4972 8.14712 16.9254 7.92931 16.3281 7.89066C15.8203 7.89066 15.5078 8.12503 15.5078 8.4766C15.5078 8.90628 15.7813 9.06253 16.875 9.33597C18.1641 9.68753 18.9062 10.1563 18.9062 11.2891C18.9062 12.5782 17.9297 13.3203 16.5625 13.3203C15.559 13.2835 14.5965 12.9122 13.8281 12.2657V12.2657ZM12.5781 6.71878L11.6016 10.4688L10.5078 6.71878H9.41406L8.32031 10.4688L7.34375 6.71878H5.82031L7.69531 13.2032H8.90625L9.96094 9.45316L11.0156 13.2032H12.2266L14.1016 6.71878H12.5781V6.71878Z" fill="white"/>
<defs>
<linearGradient id="paint0_linear_295_3307" x1="8.94334" y1="0.51956" x2="17.4247" y2="23.0539" gradientUnits="userSpaceOnUse">
<stop offset="0.28" stop-color="#00CDD7"/>
<stop offset="0.94" stop-color="#2086D7"/>
</linearGradient>
<linearGradient id="paint1_linear_295_3307" x1="10.9511" y1="3.4863" x2="24.9433" y2="16.1755" gradientUnits="userSpaceOnUse">
<stop offset="0.14" stop-color="#FFF045"/>
<stop offset="0.37" stop-color="#00CDD7"/>
</linearGradient>
<linearGradient id="paint2_linear_295_3307" x1="578.55" y1="-2159.91" x2="639.909" y2="-2216.88" gradientUnits="userSpaceOnUse">
<stop offset="0.28" stop-color="#00CDD7"/>
<stop offset="0.94" stop-color="#2086D7"/>
</linearGradient>
</defs>
</svg>
