<svg width="27" height="27" viewBox="0 0 27 27" fill="none" xmlns="http://www.w3.org/2000/svg">
<path d="M0 0V27H27V0H0ZM11.4717 19.3813L8.97539 14.2367L6.56685 19.369H4.21944L7.67396 12.7879L4.33392 6.13301H6.77036L9.13507 11.1917L11.48 6.12072H13.767L10.4243 12.5791L13.9644 19.3813H11.4717H11.4717ZM22.1746 18.841C21.1433 19.3322 20.0627 19.5532 19.0314 19.5532C16.367 19.5655 14.4639 17.9202 14.4639 14.5805C14.5506 11.1593 16.8302 9.25024 20.0259 9.50954V6.13301H22.2115V17.5028C22.216 18.8587 22.3657 18.7283 22.1746 18.841ZM20.0259 11.4372V17.515C17.8687 18.0748 16.6759 16.7619 16.6862 14.4822C16.6943 12.1443 18.2304 10.9309 20.0259 11.4372Z" fill="#E861A4"/>
</svg>
