<svg width="32" height="26" viewBox="0 0 32 26" fill="none" xmlns="http://www.w3.org/2000/svg">
<g clip-path="url(#clip0)">
<path d="M4.93295 17.506L3.25895 18.113L3.16895 23.0563L8.96395 20.955C6.97645 20.2924 5.52495 19.1263 4.93295 17.506Z" fill="#FDBD39"/>
<path d="M5.80837 12.2775L0 14.3837L3.25825 18.113L4.93225 17.506C4.342 15.8904 4.706 14.0641 5.80837 12.2775Z" fill="#F69833"/>
<path d="M15.5833 5.14452C8.18695 7.82658 3.41858 13.3609 4.93283 17.506L31.7175 7.79333C30.2032 3.64827 22.9797 2.46234 15.5833 5.14428" fill="#FECF33"/>
<path d="M21.0669 20.1549C28.4631 17.4728 33.2406 11.9629 31.7172 7.79343L4.93262 17.506C6.45587 21.6755 13.6705 22.8368 21.0669 20.1549Z" fill="#EE6723"/>
<path d="M31.7172 7.7933L4.93262 17.5061C5.45712 18.9417 7.45712 19.6489 10.2635 19.6489C12.9994 19.6489 16.5016 18.9773 20.1529 17.6533C27.5492 14.9712 32.7531 10.6287 31.7172 7.79355" fill="#F69833"/>
<path d="M26.386 5.65048C23.65 5.65048 20.1478 6.32224 16.4965 7.64614C9.10027 10.3282 3.89639 14.6707 4.93214 17.506L31.7168 7.7933C31.1924 6.35772 29.1924 5.65048 26.3861 5.65048" fill="#FDBD39"/>
<path d="M24.9068 23.3181H24.9066C24.1186 23.3181 22.9559 22.6115 21.4511 21.218C19.6706 19.5694 17.6311 17.1547 15.7083 14.4187C13.7854 11.6828 12.2054 8.9476 11.2593 6.71693C10.2284 4.28588 10.0814 2.79112 10.8224 2.27421C10.9849 2.16093 11.1808 2.10361 11.4044 2.10361C12.0072 2.10361 13.1816 2.54905 15.3532 4.67114L15.4007 4.71755L15.3942 4.78343C15.3794 4.93573 15.3658 5.08814 15.3534 5.24066L15.3293 5.54043L15.1162 5.32739C12.7764 2.98754 11.7464 2.73491 11.4122 2.73491C11.3168 2.73491 11.2409 2.75415 11.1866 2.79211C10.8651 3.01632 10.8444 4.11416 11.8438 6.47076C12.7731 8.66173 14.3301 11.3557 16.2281 14.056C18.1262 16.7567 20.1343 19.1357 21.8831 20.7549C23.7686 22.5008 24.6183 22.6893 24.8961 22.6893C24.992 22.6893 25.07 22.669 25.1277 22.6285C25.4668 22.3921 25.4672 21.216 24.3527 18.6795L24.3014 18.5631L24.4136 18.5023C24.5256 18.4414 24.634 18.3815 24.7354 18.3241L24.8697 18.2485L24.9314 18.389C25.7217 20.1863 26.4604 22.4706 25.4918 23.1465C25.3286 23.2603 25.1318 23.3181 24.9068 23.3181ZM24.9066 23.0408H24.9068L24.9067 23.1794V23.0408H24.9066Z" fill="#EE6723"/>
<path d="M21.2468 20.0791L21.2356 20.2172C21.0486 22.5139 20.5562 25.2751 19.2724 25.3868C19.2467 25.3891 19.2199 25.3902 19.1931 25.3902C18.3211 25.3902 17.4959 24.15 16.7409 21.7039C16.0264 19.3897 15.4722 16.2826 15.1799 12.9548C14.8877 9.62767 14.8921 6.47176 15.1922 4.06863C15.5196 1.44985 16.1423 0.0821393 17.0434 0.00372233C17.0702 0.00124078 17.0978 0 17.1251 0C17.7577 0 18.7112 0.710964 19.6872 4.02309L19.0499 4.14518C18.7241 3.03841 18.3688 2.13823 18.0162 1.5197C17.6901 0.94758 17.3729 0.632547 17.1233 0.632547C17.1151 0.632547 17.1068 0.632796 17.0987 0.633416C16.7081 0.667537 16.1392 1.60804 15.8219 4.14667C15.5272 6.50687 15.5236 9.61539 15.8119 12.8997C16.1006 16.1846 16.6458 19.2453 17.3474 21.5182C17.6616 22.536 18.0062 23.3748 18.3441 23.9441C18.6556 24.469 18.9571 24.7581 19.1928 24.7581C19.2011 24.7581 19.2091 24.7577 19.2172 24.7571C19.5909 24.7246 20.2953 23.7458 20.5917 20.3022L21.2468 20.0791Z" fill="#EE6723"/>
</g>
<defs>
<clipPath id="clip0">
<rect width="32" height="25.4359" fill="white"/>
</clipPath>
</defs>
</svg>
