<svg width="1115" height="534" viewBox="0 0 1115 534" fill="none" xmlns="http://www.w3.org/2000/svg">
<path d="M121.03 121.362H41.999V203H0.836914V3.22656H130.909V36.5679H41.999V88.1577H121.03V121.362ZM289.153 129.869H256.36V203H215.198V3.22656H289.427C313.027 3.22656 331.23 8.48617 344.036 19.0054C356.842 29.5246 363.245 44.3887 363.245 63.5977C363.245 77.2269 360.272 88.6151 354.326 97.7622C348.472 106.818 339.554 114.044 327.571 119.441L370.791 201.079V203H326.61L289.153 129.869ZM256.36 96.5273H289.564C299.901 96.5273 307.904 93.9204 313.576 88.7065C319.247 83.4012 322.082 76.1292 322.082 66.8906C322.082 57.4691 319.384 50.0599 313.987 44.6631C308.682 39.2663 300.495 36.5679 289.427 36.5679H256.36V96.5273ZM619.18 107.641C619.18 127.307 615.704 144.55 608.752 159.368C601.8 174.187 591.83 185.62 578.841 193.67C565.943 201.719 551.125 205.744 534.386 205.744C517.829 205.744 503.057 201.765 490.068 193.807C477.079 185.849 467.017 174.507 459.882 159.78C452.747 144.961 449.134 127.948 449.043 108.739V98.8599C449.043 79.1935 452.565 61.9054 459.608 46.9956C466.743 31.9943 476.759 20.5146 489.656 12.5566C502.645 4.50716 517.463 0.482422 534.111 0.482422C550.759 0.482422 565.532 4.50716 578.429 12.5566C591.418 20.5146 601.434 31.9943 608.477 46.9956C615.612 61.9054 619.18 79.1478 619.18 98.7227V107.641ZM577.469 98.5854C577.469 77.6385 573.718 61.7225 566.218 50.8374C558.717 39.9523 548.015 34.5098 534.111 34.5098C520.299 34.5098 509.643 39.9066 502.142 50.7002C494.641 61.4023 490.845 77.1354 490.754 97.8994V107.641C490.754 128.039 494.504 143.864 502.005 155.115C509.505 166.366 520.299 171.991 534.386 171.991C548.198 171.991 558.809 166.594 566.218 155.801C573.627 144.916 577.377 129.091 577.469 108.327V98.5854ZM871.959 203H830.797L750.668 71.5557V203H709.506V3.22656H750.668L830.934 134.945V3.22656H871.959V203ZM1114.58 36.5679H1053.39V203H1012.23V36.5679H951.857V3.22656H1114.58V36.5679ZM121.03 447.422H41.999V500.933H134.751V534H0.836914V334.227H134.477V367.568H41.999V415.179H121.03V447.422ZM381.768 534H340.605L260.477 402.556V534H219.314V334.227H260.477L340.743 465.945V334.227H381.768V534ZM478.131 534V334.227H539.6C557.162 334.227 572.849 338.206 586.662 346.164C600.565 354.03 611.405 365.281 619.18 379.917C626.955 394.46 630.842 411.017 630.842 429.585V438.778C630.842 457.347 627 473.858 619.317 488.31C611.725 502.763 600.977 513.968 587.073 521.926C573.17 529.884 557.482 533.909 540.011 534H478.131ZM519.293 367.568V500.933H539.188C555.287 500.933 567.59 495.674 576.097 485.154C584.603 474.635 588.948 459.588 589.131 440.013V429.448C589.131 409.142 584.924 393.774 576.508 383.347C568.093 372.827 555.79 367.568 539.6 367.568H519.293Z" fill="#F1F1F1"/>
</svg>
