<svg width="82" height="80" viewBox="0 0 82 80" fill="none" xmlns="http://www.w3.org/2000/svg">
<g filter="url(#filter0_f)">
<path fill-rule="evenodd" clip-rule="evenodd" d="M35.2537 24.6874C34.4296 23.918 33.1622 23.9845 32.4227 24.8358L31.7704 25.5867C31.031 26.4379 31.0995 27.7517 31.9235 28.521L41.001 36.9957L29.6866 49.7414C28.9383 50.5843 28.9933 51.8987 29.8093 52.6771L30.5481 53.3819C31.3641 54.1603 32.6323 54.108 33.3806 53.265L37.0383 49.1446L45.899 57.9567C46.6992 58.7525 47.9683 58.7277 48.7334 57.9011L49.6351 56.9272C50.4002 56.1007 50.3718 54.7855 49.5716 53.9896L40.6307 45.0977L51.5378 32.8108C52.2861 31.9678 52.2312 30.6534 51.4152 29.875L50.6764 29.1702C49.8604 28.3918 48.5922 28.4441 47.8439 29.287L44.371 33.1993L35.2537 24.6874ZM22.3449 42.2806C21.5079 41.5265 21.417 40.2141 22.1418 39.3494L28.7935 31.4132C29.5183 30.5485 30.7843 30.4588 31.6213 31.213L32.1242 31.6661C32.9612 32.4203 33.0521 33.7327 32.3274 34.5974L25.6756 42.5335C24.9508 43.3983 23.6848 43.4879 22.8478 42.7338L22.3449 42.2806ZM49.7309 50.3019C48.8939 49.5477 48.8029 48.2354 49.5277 47.3706L56.1794 39.4345C56.9042 38.5697 58.1703 38.4801 59.0073 39.2343L59.765 39.917C60.602 40.6712 60.693 41.9835 59.9682 42.8483L53.3164 50.7844C52.5916 51.6492 51.3256 51.7388 50.4886 50.9847L49.7309 50.3019Z" fill="#E861A4" fill-opacity="0.13"/>
</g>
<g filter="url(#filter1_f)">
<path fill-rule="evenodd" clip-rule="evenodd" d="M35.2126 21.8485C34.3886 21.0792 33.1211 21.1456 32.3817 21.9969L31.7294 22.7478C30.9899 23.5991 31.0585 24.9128 31.8825 25.6822L40.96 34.1568L29.6456 46.9025C28.8973 47.7455 28.9522 49.0599 29.7683 49.8383L30.5071 50.543C31.3231 51.3215 32.5912 51.2691 33.3395 50.4262L36.9973 46.3057L45.858 55.1178C46.6582 55.9137 47.9272 55.8888 48.6924 55.0623L49.5941 54.0883C50.3592 53.2618 50.3308 51.9466 49.5305 51.1507L40.5897 42.2589L51.4968 29.9719C52.2451 29.129 52.1902 27.8145 51.3742 27.0361L50.6354 26.3314C49.8193 25.5529 48.5512 25.6052 47.8029 26.4482L44.33 30.3604L35.2126 21.8485ZM22.3039 39.4418C21.4669 38.6876 21.3759 37.3752 22.1007 36.5105L28.7525 28.5743C29.4773 27.7096 30.7433 27.62 31.5803 28.3741L32.0832 28.8272C32.9202 29.5814 33.0111 30.8938 32.2863 31.7586L25.6346 39.6947C24.9098 40.5594 23.6438 40.6491 22.8068 39.8949L22.3039 39.4418ZM49.6898 47.463C48.8529 46.7089 48.7619 45.3965 49.4867 44.5318L56.1384 36.5956C56.8632 35.7309 58.1293 35.6413 58.9663 36.3954L59.724 37.0782C60.561 37.8323 60.6519 39.1447 59.9271 40.0094L53.2754 47.9456C52.5506 48.8103 51.2846 48.8999 50.4476 48.1458L49.6898 47.463Z" fill="#E861A4" fill-opacity="0.29"/>
</g>
<g filter="url(#filter2_d)">
<path fill-rule="evenodd" clip-rule="evenodd" d="M37.3837 20.2031C36.5434 19.3598 35.277 19.4448 34.5552 20.3929L33.9186 21.2292C33.1968 22.1773 33.2929 23.6296 34.1332 24.4729L43.3903 33.7624L32.3405 47.9603C31.6097 48.8992 31.6922 50.3523 32.5247 51.2057L33.2785 51.9784C34.111 52.8318 35.3783 52.7625 36.1091 51.8235L39.6813 47.2336L48.7287 56.8983C49.5458 57.7711 50.8146 57.7321 51.5626 56.8111L52.4441 55.7259C53.1921 54.8049 53.1361 53.3507 52.319 52.4778L43.1897 42.7257L53.8418 29.0388C54.5726 28.0998 54.4902 26.6468 53.6576 25.7933L52.9039 25.0206C52.0714 24.1672 50.8041 24.2366 50.0733 25.1755L46.6816 29.5335L37.3837 20.2031ZM24.8408 39.7762C23.9878 38.9498 23.8693 37.4993 24.5761 36.5364L31.063 27.6997C31.7699 26.7368 33.0344 26.6262 33.8873 27.4526L34.3999 27.9491C35.2528 28.7755 35.3713 30.2261 34.6645 31.189L28.1776 40.0257C27.4707 40.9885 26.2062 41.0992 25.3533 40.2728L24.8408 39.7762ZM52.401 48.3983C51.5481 47.5718 51.4296 46.1214 52.1364 45.1585L58.6233 36.3217C59.3302 35.3589 60.5946 35.2483 61.4476 36.0746L62.2198 36.8228C63.0728 37.6493 63.1913 39.0997 62.4844 40.0626L55.9975 48.8994C55.2907 49.8622 54.0262 49.9728 53.1733 49.1465L52.401 48.3983Z" fill="#E861A4"/>
</g>
<defs>
<filter id="filter0_f" x="0.871094" y="2.89453" width="80.3895" height="76.8543" filterUnits="userSpaceOnUse" color-interpolation-filters="sRGB">
<feFlood flood-opacity="0" result="BackgroundImageFix"/>
<feBlend mode="normal" in="SourceGraphic" in2="BackgroundImageFix" result="shape"/>
<feGaussianBlur stdDeviation="10" result="effect1_foregroundBlur"/>
</filter>
<filter id="filter1_f" x="0.830078" y="0.0556641" width="80.3895" height="76.8543" filterUnits="userSpaceOnUse" color-interpolation-filters="sRGB">
<feFlood flood-opacity="0" result="BackgroundImageFix"/>
<feBlend mode="normal" in="SourceGraphic" in2="BackgroundImageFix" result="shape"/>
<feGaussianBlur stdDeviation="10" result="effect1_foregroundBlur"/>
</filter>
<filter id="filter2_d" x="15" y="10" width="61.0917" height="61.0917" filterUnits="userSpaceOnUse" color-interpolation-filters="sRGB">
<feFlood flood-opacity="0" result="BackgroundImageFix"/>
<feColorMatrix in="SourceAlpha" type="matrix" values="0 0 0 0 0 0 0 0 0 0 0 0 0 0 0 0 0 0 127 0"/>
<feOffset dx="2" dy="2"/>
<feGaussianBlur stdDeviation="5"/>
<feColorMatrix type="matrix" values="0 0 0 0 0.916667 0 0 0 0 0.685298 0 0 0 0 0.290278 0 0 0 0.23 0"/>
<feBlend mode="normal" in2="BackgroundImageFix" result="effect1_dropShadow"/>
<feBlend mode="normal" in="SourceGraphic" in2="effect1_dropShadow" result="shape"/>
</filter>
</defs>
</svg>
